<svg width="134" height="33" viewBox="0 0 134 33" fill="none" xmlns="http://www.w3.org/2000/svg">
<g clip-path="url(#clip0_1617_2963)">
<path d="M2.78261 3.28261C4.57971 1.42754 6.89855 0.5 9.56522 0.5C12.2899 0.5 14.6667 1.36957 16.6377 3.05072L14.087 5.83333C12.7536 4.78986 11.3043 4.32609 9.62319 4.32609C7.88406 4.32609 6.49275 4.84783 5.44928 5.94928C4.4058 6.99275 3.88406 8.38406 3.88406 10.0652C3.88406 11.8623 4.4058 13.2536 5.50725 14.2971C6.55073 15.3406 7.94203 15.8623 9.68116 15.8623C11.4203 15.8623 12.8696 15.3406 14.1449 14.3551L16.6957 17.1377C14.7246 18.8188 12.4058 19.6884 9.62319 19.6884C6.89855 19.6884 4.63768 18.7609 2.78261 16.9638C0.927536 15.1087 0 12.7899 0 10.0652C0 7.34058 0.927536 5.07971 2.78261 3.28261Z" fill="white"/>
<path d="M20.6957 19.6884V0.5H34.8406V4.0942H24.5797V8.15217H32.2319V11.7464H24.5797V16.0942H34.7826V19.6884H20.6957Z" fill="white"/>
<path d="M38.6666 19.6884V0.5H39.942L52 12.558V0.5H55.826V19.6884H54.4347L42.5507 7.80435V19.6884H38.6666Z" fill="white"/>
<path d="M61.6232 3.28261C63.4783 1.42754 65.7391 0.5 68.4638 0.5C71.1884 0.5 73.5652 1.36957 75.5362 3.05072L72.9855 5.83333C71.6522 4.78986 70.2029 4.32609 68.4638 4.32609C66.7246 4.32609 65.3333 4.84783 64.2899 5.94928C63.2464 6.99275 62.7246 8.38406 62.7246 10.0652C62.7246 11.8623 63.2464 13.2536 64.3478 14.2971C65.3913 15.3406 66.7826 15.8623 68.5217 15.8623C70.2609 15.8623 71.7102 15.3406 72.9855 14.3551L75.5362 17.1377C73.5652 18.8188 71.2464 19.6884 68.4638 19.6884C65.7391 19.6884 63.4783 18.7609 61.6232 16.9638C59.7681 15.1087 58.8406 12.8478 58.8986 10.0652C58.8406 7.34058 59.7681 5.07971 61.6232 3.28261Z" fill="white"/>
<path d="M117.044 19.6884H112.638L108.406 11.7464H104.522V19.6884H100.696V0.5H109.044C113.507 0.5 115.768 2.35507 115.768 6.00725C115.768 8.78986 114.609 10.529 112.232 11.2826L117.044 19.6884ZM104.522 8.15217H109.913C111.478 8.15217 112.29 7.39855 112.29 6.06522C112.29 4.78986 111.478 4.0942 109.971 4.0942H104.58V8.15217H104.522Z" fill="white"/>
<path d="M119.015 19.6884V0.5H133.101V4.0942H122.841V8.15217H130.551V11.7464H122.841V16.0942H133.044V19.6884H119.015Z" fill="white"/>
<path d="M86.7247 15.8622C85.8551 15.5724 85.1015 15.1086 84.4638 14.413C83.4203 13.2535 82.8406 11.8043 82.8406 10.1231C82.8406 8.44194 83.3623 6.99267 84.4638 5.83325C85.1015 5.1376 85.8551 4.67383 86.7247 4.38397V0.673828C84.8116 1.02165 83.1305 1.89122 81.7392 3.28252C79.8841 5.1376 79.0145 7.39847 79.0145 10.1231C79.0145 12.8477 79.9421 15.1086 81.7392 16.9637C83.1305 18.355 84.8116 19.2246 86.7247 19.5724V15.8622Z" fill="#025DA2"/>
<path d="M95.4203 3.22469C94.145 1.94932 92.6957 1.13773 91.0145 0.731934V4.55802C91.6522 4.84788 92.2319 5.25367 92.6957 5.77541C93.7392 6.93483 94.3189 8.38411 94.3189 10.0653C94.3189 11.7464 93.7971 13.1957 92.6957 14.3551C92.1739 14.8769 91.6522 15.2827 91.0145 15.5725V19.3406C92.6957 18.9348 94.145 18.1232 95.4203 16.8479C97.2754 14.9928 98.145 12.7319 98.145 10.0073C98.2029 7.3986 97.2754 5.07976 95.4203 3.22469Z" fill="#025DA2"/>
<path d="M26.1449 31.9204C25.6232 32.0943 24.5218 32.4421 23.2464 32.4421C21.7971 32.4421 20.6377 32.0943 19.7102 31.1668C18.8986 30.3552 18.3768 29.1378 18.3768 27.6306C18.3768 24.79 20.3478 22.761 23.5362 22.761C24.6377 22.761 25.5073 22.9929 25.9131 23.2248L25.6232 24.2103C25.1015 23.9784 24.4638 23.8045 23.5362 23.8045C21.2174 23.8045 19.7102 25.2537 19.7102 27.6306C19.7102 30.0653 21.1594 31.4566 23.3623 31.4566C24.1739 31.4566 24.6957 31.3407 24.9855 31.2248V28.3262H23.0725V27.3407H26.2029V31.9204H26.1449Z" fill="white"/>
<path d="M39.3043 22.9928C39.942 22.8768 40.8116 22.8188 41.6811 22.8188C43.0145 22.8188 43.826 23.0507 44.4058 23.5725C44.8695 23.9783 45.1594 24.616 45.1594 25.3696C45.1594 26.6449 44.3478 27.4565 43.3623 27.8044V27.8623C44.1159 28.0942 44.5217 28.7899 44.7536 29.7754C45.0434 31.1087 45.2753 32.0362 45.5072 32.3841H44.2318C44.0579 32.0362 43.826 31.2246 43.5362 30.0652C43.2463 28.7319 42.7246 28.2681 41.6232 28.2102H40.4637V32.3261H39.2463V22.9928H39.3043ZM40.5217 27.2826H41.7391C43.0724 27.2826 43.884 26.587 43.884 25.4855C43.884 24.2681 43.0145 23.7464 41.6811 23.6884C41.1014 23.6884 40.6956 23.7464 40.4637 23.8044V27.2826H40.5217Z" fill="white"/>
<path d="M66.203 27.4566C66.203 30.703 64.232 32.4421 61.7972 32.4421C59.3044 32.4421 57.5073 30.5291 57.5073 27.6305C57.5073 24.616 59.3624 22.645 61.9131 22.645C64.5218 22.703 66.203 24.674 66.203 27.4566ZM58.8407 27.6305C58.8407 29.6595 59.9421 31.4566 61.8552 31.4566C63.8262 31.4566 64.8696 29.6595 64.8696 27.5146C64.8696 25.6015 63.8841 23.6305 61.8552 23.6305C59.8841 23.6885 58.8407 25.5436 58.8407 27.6305Z" fill="white"/>
<path d="M80.2899 22.8188V28.442C80.2899 30.587 81.2174 31.4565 82.4928 31.4565C83.8841 31.4565 84.8116 30.529 84.8116 28.442V22.8188H86.029V28.3261C86.029 31.2246 84.5218 32.442 82.4348 32.442C80.5218 32.442 79.0145 31.3406 79.0145 28.3841V22.8188H80.2899Z" fill="white"/>
<path d="M99.4203 22.9349C100 22.819 100.812 22.761 101.797 22.761C103.014 22.761 103.884 23.0508 104.464 23.5726C104.986 24.0363 105.275 24.732 105.275 25.5436C105.275 26.4132 105.043 27.0508 104.522 27.5726C103.884 28.2682 102.841 28.6161 101.623 28.6161C101.275 28.6161 100.928 28.6161 100.638 28.5581V32.3842H99.4203V22.9349ZM100.638 27.5146C100.928 27.5726 101.217 27.6306 101.623 27.6306C103.072 27.6306 104 26.9349 104 25.6016C104 24.3262 103.13 23.7465 101.739 23.7465C101.217 23.7465 100.812 23.8045 100.58 23.8624V27.5146H100.638Z" fill="white"/>
</g>
<defs>
<clipPath id="clip0_1617_2963">
<rect width="133.101" height="32" fill="white" transform="translate(0 0.5)"/>
</clipPath>
</defs>
</svg>
